<svg width="256" height="32" viewBox="0 0 1024 128" fill="none" xmlns="http://www.w3.org/2000/svg">
	<path d="M25.19,30.19V14.75h68.92v15.44H69.38v63.23H49.96V30.19H25.19z" fill="#495057"/>
	<path d="M118.77,59.77v33.65H99.3V14.75h18.83v30.5h0.68c1.38-3.64,3.64-6.48,6.79-8.53c3.15-2.05,7-3.07,11.57-3.07
		c4.3,0,8.04,0.92,11.23,2.75s5.66,4.41,7.43,7.74c1.76,3.33,2.63,7.22,2.61,11.68v37.61h-19.47V59.51
		c0.03-3.28-0.82-5.84-2.55-7.68c-1.73-1.84-4.15-2.77-7.29-2.77c-2.04,0-3.84,0.43-5.39,1.29c-1.55,0.86-2.76,2.08-3.62,3.67
		C119.24,55.6,118.79,57.52,118.77,59.77z" fill="#495057"/>
	<path d="M194.62,94.54c-6.4,0-11.91-1.22-16.54-3.67c-4.63-2.45-8.19-5.94-10.67-10.49c-2.48-4.55-3.72-9.96-3.72-16.23
		c0-6.09,1.25-11.43,3.74-16c2.49-4.57,6.01-8.13,10.55-10.68c4.54-2.55,9.89-3.82,16.04-3.82c4.35,0,8.33,0.65,11.94,1.96
		c3.61,1.31,6.73,3.24,9.36,5.8c2.63,2.56,4.67,5.72,6.13,9.47c1.46,3.75,2.19,8.05,2.19,12.89v4.69H170.5V57.55h35.04
		c-0.03-2-0.52-3.78-1.47-5.34c-0.96-1.56-2.26-2.79-3.92-3.67c-1.66-0.88-3.56-1.33-5.71-1.33c-2.18,0-4.13,0.47-5.85,1.4
		c-1.73,0.94-3.09,2.2-4.1,3.8c-1.01,1.6-1.54,3.41-1.59,5.44v11.1c0,2.41,0.49,4.51,1.47,6.32c0.98,1.81,2.38,3.21,4.18,4.21
		c1.8,1,3.95,1.5,6.45,1.5c1.73,0,3.29-0.23,4.7-0.69c1.41-0.46,2.61-1.14,3.62-2.04c1.01-0.9,1.76-2,2.27-3.3l17.88,0.5
		c-0.74,3.87-2.37,7.23-4.88,10.08c-2.51,2.86-5.79,5.07-9.85,6.65C204.66,93.75,199.96,94.54,194.62,94.54z" fill="#495057"/>
	<path d="M248.8,93.43V14.75h34c6.1,0,11.22,0.83,15.35,2.5c4.13,1.67,7.23,4,9.32,6.99c2.08,3,3.12,6.47,3.12,10.41
		c0,3-0.65,5.67-1.95,8.01c-1.3,2.34-3.09,4.28-5.38,5.82c-2.28,1.54-4.92,2.61-7.92,3.23v0.77c3.29,0.15,6.34,1.01,9.14,2.57
		c2.8,1.56,5.05,3.73,6.75,6.51c1.7,2.78,2.55,6.06,2.55,9.85c0,4.23-1.11,8-3.34,11.31c-2.23,3.32-5.45,5.93-9.67,7.84
		c-4.22,1.91-9.34,2.86-15.37,2.86H248.8z M268.5,47.1h10.91c2.15,0,4.06-0.35,5.73-1.04c1.67-0.69,2.98-1.69,3.92-3
		c0.94-1.31,1.41-2.88,1.41-4.73c0-2.64-0.97-4.71-2.91-6.22c-1.94-1.51-4.55-2.27-7.84-2.27H268.5V47.1z M268.5,78.1h12.18
		c4.27,0,7.43-0.78,9.46-2.34s3.05-3.74,3.05-6.53c0-2.02-0.49-3.77-1.47-5.24c-0.98-1.47-2.38-2.61-4.18-3.42
		c-1.81-0.81-3.97-1.21-6.49-1.21H268.5V78.1z" fill="#495057"/>
	<path d="M336,94.43c-3.9,0-7.36-0.63-10.37-1.9c-3.01-1.27-5.39-3.19-7.13-5.76c-1.74-2.57-2.61-5.81-2.61-9.7
		c0-3.28,0.6-6.04,1.79-8.3c1.19-2.25,2.84-4.08,4.94-5.49s4.51-2.48,7.25-3.21c2.73-0.73,5.65-1.22,8.76-1.48
		c3.48-0.31,6.28-0.63,8.4-0.98c2.12-0.35,3.67-0.84,4.64-1.5c0.97-0.65,1.45-1.58,1.45-2.79v-0.19c0-1.97-0.7-3.5-2.11-4.57
		c-1.41-1.08-3.3-1.61-5.69-1.61c-2.57,0-4.65,0.54-6.21,1.61c-1.57,1.08-2.56,2.56-2.99,4.46l-17.96-0.61
		c0.53-3.58,1.9-6.79,4.12-9.62c2.22-2.83,5.27-5.06,9.16-6.68c3.89-1.63,8.57-2.44,14.03-2.44c3.9,0,7.5,0.44,10.79,1.33
		c3.29,0.88,6.16,2.17,8.6,3.84c2.44,1.68,4.33,3.73,5.67,6.17c1.34,2.43,2.01,5.21,2.01,8.34v40.11h-18.31v-8.22h-0.48
		c-1.09,2-2.48,3.69-4.16,5.07s-3.66,2.42-5.93,3.11C341.4,94.08,338.84,94.43,336,94.43z M342.01,82.13c2.1,0,3.99-0.41,5.67-1.23
		c1.69-0.82,3.03-1.95,4.04-3.4c1.01-1.45,1.51-3.13,1.51-5.05v-5.61c-0.56,0.28-1.23,0.54-2.01,0.77
		c-0.78,0.23-1.64,0.45-2.57,0.65c-0.93,0.21-1.88,0.38-2.87,0.54c-0.98,0.15-1.92,0.29-2.83,0.42c-1.83,0.28-3.39,0.72-4.68,1.31
		c-1.29,0.59-2.27,1.35-2.95,2.29c-0.68,0.94-1.02,2.04-1.02,3.32c0,1.95,0.72,3.43,2.17,4.46
		C337.95,81.62,339.78,82.13,342.01,82.13z" fill="#495057"/>
	<path d="M379.93,93.43V34.42h18.91v10.76h0.64c1.11-3.89,2.93-6.79,5.45-8.7c2.52-1.91,5.45-2.86,8.8-2.86
		c0.9,0,1.83,0.06,2.79,0.17c0.96,0.12,1.84,0.29,2.67,0.52v16.33c-0.93-0.31-2.14-0.55-3.64-0.73c-1.5-0.18-2.83-0.27-4-0.27
		c-2.31,0-4.39,0.49-6.23,1.48c-1.85,0.99-3.29,2.36-4.34,4.11c-1.05,1.75-1.57,3.81-1.57,6.17v32.04H379.93z" fill="#495057"/>
	<path d="M442.13,59.77v33.65h-19.47V34.42h18.51v10.83h0.68c1.35-3.61,3.66-6.45,6.93-8.51s7.15-3.09,11.67-3.09
		c4.3,0,8.04,0.93,11.21,2.79c3.17,1.86,5.64,4.44,7.41,7.76c1.76,3.32,2.63,7.19,2.61,11.62v37.61h-19.47V59.51
		c0.03-3.28-0.83-5.84-2.57-7.68c-1.74-1.84-4.15-2.77-7.23-2.77c-2.04,0-3.84,0.43-5.39,1.29c-1.55,0.86-2.75,2.08-3.58,3.67
		C442.59,55.6,442.16,57.52,442.13,59.77z" fill="#495057"/>
	<path d="M517.79,116.28c-5.81,0-10.79-0.77-14.93-2.3c-4.14-1.54-7.39-3.63-9.75-6.28c-2.36-2.65-3.78-5.62-4.26-8.89l18.43-1
		c0.34,1.05,0.99,1.98,1.93,2.8c0.94,0.82,2.18,1.47,3.7,1.94c1.53,0.47,3.32,0.71,5.39,0.71c3.26,0,5.96-0.74,8.1-2.23
		c2.14-1.49,3.2-4,3.2-7.53V83.13h-0.68c-0.77,1.82-1.94,3.45-3.5,4.88c-1.57,1.43-3.51,2.56-5.83,3.38
		c-2.32,0.82-4.98,1.23-7.98,1.23c-4.46,0-8.54-1-12.24-3.02s-6.66-5.13-8.88-9.37c-2.22-4.24-3.32-9.7-3.32-16.38
		c0-6.89,1.14-12.57,3.42-17.04c2.28-4.47,5.28-7.78,8.98-9.93c3.7-2.15,7.69-3.23,11.96-3.23c3.21,0,5.96,0.53,8.26,1.59
		s4.19,2.43,5.67,4.09c1.49,1.67,2.61,3.39,3.38,5.19h0.56v-10.1h19.39v59.24c0,4.84-1.3,8.94-3.9,12.31
		c-2.6,3.37-6.24,5.93-10.91,7.68C529.32,115.41,523.92,116.28,517.79,116.28z M518.38,78.94c2.36,0,4.38-0.6,6.05-1.81
		c1.67-1.2,2.96-2.93,3.86-5.19c0.9-2.25,1.35-4.96,1.35-8.11c0-3.2-0.44-5.96-1.33-8.28c-0.89-2.32-2.18-4.1-3.86-5.36
		s-3.71-1.88-6.07-1.88c-2.42,0-4.46,0.64-6.13,1.92c-1.67,1.28-2.94,3.08-3.8,5.4c-0.86,2.32-1.29,5.05-1.29,8.2
		s0.44,5.85,1.31,8.11c0.88,2.25,2.14,3.98,3.8,5.19C513.93,78.34,515.97,78.94,518.38,78.94z" fill="#495057"/>
	<path d="M573.94,94.43c-3.9,0-7.36-0.63-10.37-1.9c-3.01-1.27-5.39-3.19-7.13-5.76s-2.61-5.81-2.61-9.7c0-3.28,0.6-6.04,1.79-8.3
		c1.19-2.25,2.84-4.08,4.94-5.49c2.1-1.41,4.51-2.48,7.25-3.21s5.65-1.22,8.76-1.48c3.48-0.31,6.28-0.63,8.4-0.98
		c2.12-0.35,3.67-0.84,4.64-1.5s1.45-1.58,1.45-2.79v-0.19c0-1.97-0.7-3.5-2.11-4.57c-1.41-1.08-3.3-1.61-5.69-1.61
		c-2.58,0-4.65,0.54-6.21,1.61c-1.57,1.08-2.56,2.56-2.99,4.46L556.1,52.4c0.53-3.58,1.9-6.79,4.12-9.62
		c2.22-2.83,5.27-5.06,9.16-6.68c3.89-1.63,8.57-2.44,14.03-2.44c3.9,0,7.5,0.44,10.79,1.33c3.29,0.88,6.16,2.17,8.6,3.84
		c2.44,1.68,4.33,3.73,5.67,6.17c1.34,2.43,2.01,5.21,2.01,8.34v40.11h-18.31v-8.22h-0.48c-1.09,2-2.47,3.69-4.16,5.07
		s-3.66,2.42-5.93,3.11S576.78,94.43,573.94,94.43z M579.95,82.13c2.1,0,3.99-0.41,5.67-1.23c1.69-0.82,3.03-1.95,4.04-3.4
		c1.01-1.45,1.51-3.13,1.51-5.05v-5.61c-0.56,0.28-1.23,0.54-2.01,0.77c-0.78,0.23-1.64,0.45-2.57,0.65
		c-0.93,0.21-1.88,0.38-2.87,0.54c-0.98,0.15-1.92,0.29-2.83,0.42c-1.83,0.28-3.39,0.72-4.68,1.31c-1.29,0.59-2.27,1.35-2.95,2.29
		c-0.68,0.94-1.01,2.04-1.01,3.32c0,1.95,0.72,3.43,2.17,4.46C575.88,81.62,577.72,82.13,579.95,82.13z" fill="#495057"/>
	<path d="M637.5,93.43V14.75h33.68c6.1,0,11.38,1.15,15.83,3.44c4.45,2.29,7.88,5.48,10.29,9.57s3.62,8.83,3.62,14.23
		c0,5.43-1.23,10.17-3.68,14.23c-2.46,4.06-5.95,7.2-10.49,9.43c-4.54,2.23-9.93,3.34-16.16,3.34h-20.78V54.01h17.12
		c2.97,0,5.46-0.5,7.46-1.5s3.52-2.4,4.56-4.21c1.04-1.81,1.55-3.91,1.55-6.32c0-2.43-0.52-4.54-1.55-6.32
		c-1.04-1.78-2.56-3.16-4.58-4.13c-2.02-0.97-4.5-1.46-7.45-1.46h-9.71v63.35H637.5z" fill="#495057"/>
	<path d="M706.12,93.43V34.42h18.91v10.76h0.64c1.12-3.89,2.93-6.79,5.46-8.7c2.52-1.91,5.45-2.86,8.8-2.86
		c0.9,0,1.83,0.06,2.79,0.17c0.96,0.12,1.84,0.29,2.67,0.52v16.33c-0.93-0.31-2.14-0.55-3.64-0.73c-1.5-0.18-2.83-0.27-4-0.27
		c-2.31,0-4.39,0.49-6.23,1.48c-1.84,0.99-3.29,2.36-4.34,4.11c-1.05,1.75-1.57,3.81-1.57,6.17v32.04H706.12z" fill="#495057"/>
	<path d="M777.39,94.54c-6.42,0-11.94-1.27-16.54-3.82c-4.61-2.55-8.15-6.11-10.63-10.68c-2.48-4.57-3.72-9.88-3.72-15.92
		c0-6.07,1.24-11.39,3.72-15.96c2.48-4.57,6.02-8.13,10.63-10.68c4.6-2.55,10.12-3.82,16.54-3.82c6.42,0,11.94,1.27,16.54,3.82
		c4.6,2.55,8.15,6.11,10.63,10.68s3.72,9.89,3.72,15.96c0,6.04-1.24,11.35-3.72,15.92s-6.03,8.13-10.63,10.68
		S783.82,94.54,777.39,94.54z M777.51,80.37c2.34,0,4.31-0.69,5.93-2.07c1.62-1.38,2.86-3.3,3.72-5.76c0.86-2.46,1.29-5.3,1.29-8.53
		c0-3.28-0.43-6.15-1.29-8.61c-0.86-2.46-2.1-4.38-3.72-5.76c-1.62-1.38-3.6-2.08-5.93-2.08c-2.42,0-4.45,0.69-6.11,2.08
		s-2.92,3.3-3.78,5.76c-0.86,2.46-1.29,5.33-1.29,8.61c0,3.23,0.43,6.07,1.29,8.53c0.86,2.46,2.12,4.38,3.78,5.76
		S775.1,80.37,777.51,80.37z" fill="#495057"/>
	<path d="M813.8,34.42h19.47v61.24c0,4.87-1.03,8.76-3.09,11.7s-4.99,5.03-8.8,6.3s-8.31,1.83-13.52,1.67
		c-0.53-0.03-1.07-0.04-1.61-0.04c-0.54,0-1.2-0.04-1.97-0.12v-14.21c0.48,0.05,0.9,0.08,1.27,0.1c0.37,0.01,0.74,0.02,1.12,0.02
		c2.68,0,4.54-0.47,5.57-1.42c1.04-0.95,1.55-2.41,1.55-4.38V34.42z M823.55,27.54c-2.76,0-5.12-0.88-7.09-2.63
		c-1.96-1.75-2.95-3.87-2.95-6.36c0-2.46,0.98-4.57,2.95-6.32c1.96-1.75,4.31-2.63,7.05-2.63c2.76,0,5.12,0.88,7.07,2.63
		c1.95,1.75,2.93,3.87,2.93,6.36c0,2.46-0.97,4.57-2.93,6.32C828.63,26.67,826.28,27.54,823.55,27.54z" fill="#495057"/>
	<path d="M869.71,94.54c-6.4,0-11.91-1.22-16.54-3.67c-4.63-2.45-8.19-5.94-10.67-10.49c-2.48-4.55-3.72-9.96-3.72-16.23
		c0-6.09,1.25-11.43,3.74-16c2.49-4.57,6.01-8.13,10.55-10.68c4.54-2.55,9.89-3.82,16.04-3.82c4.35,0,8.33,0.65,11.94,1.96
		c3.61,1.31,6.73,3.24,9.36,5.8c2.63,2.56,4.67,5.72,6.13,9.47c1.46,3.75,2.19,8.05,2.19,12.89v4.69h-53.15V57.55h35.04
		c-0.03-2-0.52-3.78-1.47-5.34c-0.96-1.56-2.26-2.79-3.92-3.67c-1.66-0.88-3.56-1.33-5.71-1.33c-2.18,0-4.13,0.47-5.85,1.4
		c-1.73,0.94-3.09,2.2-4.1,3.8c-1.01,1.6-1.54,3.41-1.59,5.44v11.1c0,2.41,0.49,4.51,1.47,6.32c0.98,1.81,2.38,3.21,4.18,4.21
		c1.8,1,3.96,1.5,6.45,1.5c1.72,0,3.29-0.23,4.7-0.69c1.41-0.46,2.61-1.14,3.62-2.04s1.76-2,2.27-3.3l17.88,0.5
		c-0.74,3.87-2.37,7.23-4.88,10.08c-2.51,2.86-5.79,5.07-9.85,6.65C879.74,93.75,875.04,94.54,869.71,94.54z" fill="#495057"/>
	<path d="M932.78,94.54c-6.45,0-11.98-1.28-16.58-3.84c-4.61-2.56-8.14-6.13-10.61-10.7c-2.47-4.57-3.7-9.87-3.7-15.88
		c0-6.04,1.24-11.35,3.72-15.92c2.48-4.57,6.02-8.14,10.63-10.7c4.6-2.56,10.11-3.84,16.5-3.84c5.65,0,10.58,0.99,14.79,2.96
		c4.21,1.97,7.5,4.76,9.87,8.36c2.38,3.6,3.63,7.82,3.76,12.66h-18.19c-0.37-3.02-1.43-5.39-3.17-7.11c-1.74-1.71-4-2.57-6.79-2.57
		c-2.26,0-4.23,0.61-5.93,1.82c-1.7,1.22-3.02,3.01-3.96,5.38c-0.94,2.37-1.41,5.29-1.41,8.78c0,3.48,0.47,6.42,1.41,8.82
		c0.94,2.39,2.26,4.2,3.96,5.42c1.7,1.22,3.68,1.83,5.93,1.83c1.8,0,3.4-0.37,4.8-1.11c1.39-0.74,2.54-1.84,3.44-3.28
		c0.9-1.45,1.47-3.21,1.71-5.28h18.19c-0.19,4.87-1.44,9.12-3.76,12.75s-5.57,6.46-9.75,8.47
		C943.47,93.54,938.52,94.54,932.78,94.54z" fill="#495057"/>
	<path d="M1001.2,34.42v13.83h-38.58V34.42H1001.2z M970.7,20.28h19.47v54.59c0,1.15,0.19,2.08,0.58,2.79
		c0.38,0.7,0.95,1.2,1.69,1.5c0.74,0.29,1.63,0.44,2.67,0.44c0.74,0,1.53-0.07,2.37-0.21c0.84-0.14,1.47-0.26,1.89-0.37l2.95,13.56
		c-0.93,0.26-2.24,0.58-3.92,0.96s-3.7,0.63-6.03,0.73c-4.57,0.21-8.47-0.31-11.73-1.56c-3.25-1.24-5.73-3.18-7.44-5.82
		s-2.54-5.96-2.49-9.95V20.28z" fill="#495057"/>
</svg>
