<svg xmlns="http://www.w3.org/2000/svg" viewBox="0 0 512 512">
  <defs>
    <style>
      .cls-1 {
        fill: #fff;
      }

      .cls-2 {
        fill: #25243b;
      }

      @media (prefers-color-scheme: dark) {
        .cls-2 {
          fill: #fff;
        }

        .cls-1 {
          fill: #25243b;
        }
      }
    </style>
  </defs>
  <g id="text_fill">
    <rect class="cls-1" y="96.78" width="512" height="318.78"/>
  </g>
  <g id="logo_body">
    <g>
      <path class="cls-2" d="M0,403c12-.05,24,.05,36-.2,13.27-.27,26.57,1,39.82-.71,2.16-13.38.46-26.84.89-40.25.26-8.16,0-16.33.06-24.49,0-6.12.29-6.41,6.56-6.42q21.24,0,42.49,0c46.46,0,79.84-22.15,97.85-64.92a164.39,164.39,0,0,0,7.27-20.21c.47-1.72.75-3.58,2.12-4.94,2.11.54,1.36,2.13,1.36,3.27q0,75.74,0,151.46c0,7.25,0,7.26,7,7.26q36.5,0,73,0c7.53,0,7.54,0,7.54-7.8q0-47.25,0-94.48c0-7.43.19-7.63,7.51-7.63q44.74,0,89.48,0c6.67,0,7.08.41,7.08,7.08q0,47.73,0,95.47c0,7.35,0,7.35,7.54,7.36L512,403v43a17.78,17.78,0,0,1-3.83.92c-7.32.11-14.63.18-21.95.06-3.48-.06-5.25,1-5.15,4.82.18,6.81.13,13.64,0,20.45,0,3.14,1.1,4.61,4.36,4.48,3.65-.14,7.32,0,11,0,1.13,0,2.57-.34,3.23.77.86,1.41-.46,2.51-1.21,3.5-2,2.63-4.08,5.26-6.32,7.7C480.43,501.4,465.65,508.45,449,512H63c-2.24-.58-4.49-1.15-6.73-1.74A75.11,75.11,0,0,1,13.84,481.4c-.83-1.12-2.42-2.32-1.47-3.9.74-1.25,2.43-.74,3.71-.77,3-.05,6-.19,9,0,3.77.26,5-1.41,4.86-5-.18-5.65,0-11.31,0-17,0-7.77,0-7.57-7.59-7.84S7.35,448.14,0,446Zm101.71,73.71c8.49,0,17-.1,25.48,0,3.4.05,4.82-1.18,4.74-4.66-.16-6.82-.12-13.65,0-20.48,0-3.09-1.07-4.61-4.34-4.6q-25.48.09-51,0c-3.21,0-4.46,1.3-4.41,4.48.12,6.83.19,13.67,0,20.49-.12,3.83,1.52,4.87,5.07,4.79C85.38,476.59,93.55,476.71,101.71,476.71Zm102.89,0c8.48,0,17-.05,25.45,0,2.8,0,4.27-.61,4.15-3.91-.26-6.81-.24-13.64-.09-20.46.08-3.76-1.22-5.42-5.18-5.39q-25,.19-49.91,0c-3.4,0-4.79,1.24-4.71,4.7.16,6.65.21,13.31,0,20-.14,4,1.58,5.2,5.35,5.12C188,476.59,196.28,476.71,204.6,476.7Zm203.94,0c8.48,0,17-.08,25.45,0,3.38.05,4.83-1.24,4.76-4.69-.13-6.81-.11-13.63,0-20.45.05-3.07-1-4.61-4.29-4.6q-25.44.11-50.89,0c-3.16,0-4.51,1.26-4.46,4.46.1,6.81.16,13.64,0,20.45-.11,3.76,1.45,4.92,5,4.85C392.25,476.59,400.4,476.71,408.54,476.7ZM306.83,447c-8.32,0-16.65.06-25,0-3.29,0-4.94,1.11-4.87,4.63.12,7,.09,14,0,21,0,3,1.3,4.14,4.23,4.13q25.22-.08,50.44,0c3.26,0,4.44-1.39,4.39-4.51-.09-6.66-.15-13.32,0-20,.1-3.87-1.43-5.35-5.3-5.27C322.81,447.14,314.82,447,306.83,447Z"/>
      <path class="cls-2" d="M512,109l-78.47.16c-7.53,0-7.54,0-7.54,7.36q0,50.24,0,100.47c0,7.78-.17,8-7.71,8q-44.49,0-89,0c-7.09,0-7.4-.31-7.4-7.25q0-50.49,0-101c0-7.55,0-7.56-7.78-7.56H241.63c-7.26,0-7.28,0-7.27,7.5q0,36.48.12,73c0,1.14.18,2.32-.92,3.49-2.21-1.31-2.12-3.65-2.7-5.56C224.7,167.58,216,149,201,134c-11.94-12-26.76-19.08-42.63-24.16-2.46-.79-5.28-.63-7.92-.63q-71.75,0-143.47,0c-2.33,0-4.66-.1-7-.15V66c2-1.09,4.17-1,6.33-1,6.48,0,13-.11,19.44,0,3.47.07,5.27-1,5.17-4.81q-.26-10.22,0-20.44c.08-3.58-1.56-4.66-4.85-4.52-3.48.14-7,0-10.47,0-3.67,0-4-1.65-2-4.27s3.85-5,6-7.34C31.3,10.76,46.17,3.58,63,0H449c2.24.58,4.49,1.15,6.73,1.74a75,75,0,0,1,42.45,28.89c.83,1.12,2.42,2.33,1.43,3.9-.76,1.21-2.44.71-3.74.74a70.8,70.8,0,0,1-8,0c-4.49-.42-5.84,1.59-5.64,5.84.26,5.64.05,11.31.06,17,0,6.91,0,6.73,6.88,7,7.61.3,15.29-1.18,22.81,1ZM308.26,65v0c8.5,0,17-.12,25.49.07,3,.06,4.15-.82,4.08-3.92-.17-7.16-.15-14.33,0-21.49.06-3.23-1.2-4.43-4.41-4.42q-25.5.14-51,0c-3.26,0-4.43,1.36-4.38,4.5.11,6.66.17,13.33,0,20-.12,3.88,1.36,5.36,5.25,5.28C291.6,64.86,299.93,65,308.26,65Zm-205.4,0c8.48,0,17,0,25.44,0,3,0,4.68-1,4.64-4.3-.1-7.14-.09-14.3,0-21.45,0-3.1-1.52-4-4.34-4q-25.44.09-50.89,0c-3.23,0-4.45,1.38-4.4,4.51.09,6.49.22,13-.06,19.46-.18,4.29,1.23,6,5.67,5.83C86.88,64.8,94.87,65,102.86,65Zm102.78,0c8.48,0,17,0,25.44,0,3,0,4.66-1,4.6-4.29-.12-7-.1-14,0-20.95,0-3.16-1.21-4.51-4.42-4.5q-25.44.1-50.89,0c-3.26,0-4.42,1.39-4.38,4.51.1,6.65.16,13.31,0,20-.11,3.82,1.31,5.39,5.22,5.31C189.34,64.86,197.49,65,205.64,65Zm203.84,0c8.49,0,17-.09,25.46,0,3.6.06,5.13-1.27,5-5-.16-6.65-.13-13.31,0-20,.07-3.27-.92-4.88-4.52-4.86q-25.2.16-50.41,0c-3.36,0-4.86,1.19-4.79,4.66.13,6.82.14,13.65,0,20.47-.08,3.5,1.44,4.68,4.79,4.63C393.18,64.9,401.33,65,409.48,65Z"/>
      <path class="cls-2" d="M76.75,217.56c0-13.15.14-26.3-.08-39.45-.07-4.38,1.35-5.74,5.78-5.6,10.31.35,20.64,0,31,.19,22,.47,38.65,13.45,42.11,34,2.63,15.6,1.77,31-10,43.57-8.79,9.41-20.28,12.39-32.53,12.89-10,.4-20-.1-30,.16-4.7.12-6.49-1.38-6.39-6.26C76.92,243.87,76.75,230.71,76.75,217.56Z"/>
    </g>
  </g>
</svg>
